# Alias OBJ Model File
# Exported from SketchUp, (c) 2000-2012 Trimble Navigation Limited
# File units = meters

mtllib adv_flying_enemy.mtl

g Mesh1 Model

usemtl FrontColor
v -0.311769 2 0.54
vt -12.2744 -21.2598
vn 0 1 -0
v -0.311769 2 -0.54
vt -12.2744 21.2598
v -0.623538 2 -1.36792e-15
vt -24.5488 5.3855e-14
f 1/1/1 2/2/1 3/3/1

v 0.311769 2 0.54
vt 12.2744 -21.2598
f 2/2/1 1/1/1 4/4/1

vt -12.2744 13.788
vn -1.17054e-16 0.907467 0.420124
v 1.55885 1 2.7
vt 61.3719 -79.9227
vt 12.2744 13.788
f 1/5/2 5/6/2 4/7/2

v -1.55885 1 2.7
vt -61.3719 -79.9227
f 5/6/2 1/5/2 6/8/2

vn -0.363838 0.907467 0.210062
f 3/5/3 6/6/3 1/7/3

v -3.11769 1 -6.4972e-16
f 6/6/3 3/5/3 7/8/3

vn -0.363838 0.907467 -0.210062
v -1.55885 1 -2.7
f 3/7/4 8/8/4 7/6/4

f 8/8/4 3/7/4 2/5/4

vn 1.22419e-16 0.907467 -0.420124
v 1.55885 1 -2.7
f 2/7/5 9/8/5 8/6/5

v 0.311769 2 -0.54
f 9/8/5 2/7/5 10/5/5

vt 12.2744 21.2598
f 2/2/1 4/4/1 10/9/1

v 0.623538 2 -8.98674e-16
vt 24.5488 3.53809e-14
f 10/9/1 4/4/1 11/10/1

vn 0.363838 0.907467 0.210062
f 5/8/6 11/7/6 4/5/6

v 3.11769 1 1.29944e-15
f 11/7/6 5/8/6 12/6/6

vt -61.3719 7.16484
vn 0.829502 0.287348 0.478913
v 2.13205 0 2.30718
vt -36.6949 -33.9387
vt 61.3719 7.16484
f 5/11/7 13/12/7 12/13/7

v 1.73205 0 3
vt -68.191 -33.9387
f 13/12/7 5/11/7 14/14/7

vn -5.85002e-16 0.287348 0.957826
v 0.932051 0 3
vt 36.6949 -33.9387
vt 68.191 -33.9387
f 5/13/8 15/15/8 14/16/8

v -0.932051 0 3
f 15/15/8 5/13/8 16/12/8

v -1.73205 0 3
f 16/12/8 5/13/8 17/14/8

f 17/14/8 5/13/8 6/11/8

vn -0.829502 0.287348 0.478913
v -2.13205 0 2.30718
f 6/13/9 18/15/9 17/16/9

f 18/15/9 6/13/9 7/11/9

v -3.0641 0 0.69282
f 18/15/9 7/11/9 19/12/9

v -3.4641 0 -5.41434e-16
f 19/12/9 7/11/9 20/14/9

vn -0.829502 0.287348 -0.478913
v -3.0641 0 -0.69282
f 7/13/10 21/15/10 20/16/10

f 21/15/10 7/13/10 8/11/10

v -2.13205 0 -2.30718
f 21/15/10 8/11/10 22/12/10

v -1.73205 0 -3
f 22/12/10 8/11/10 23/14/10

vn 3.34606e-15 0.287348 -0.957826
v -0.932051 0 -3
f 8/13/11 24/15/11 23/16/11

v 0.932051 0 -3
f 24/15/11 8/13/11 25/12/11

v 1.73205 0 -3
f 25/12/11 8/13/11 26/14/11

f 26/14/11 8/13/11 9/11/11

vn 0.829502 0.287348 -0.478913
v 2.13205 0 -2.30718
f 9/13/12 27/15/12 26/16/12

v 3.0641 0 -0.69282
f 9/13/12 28/12/12 27/15/12

f 12/11/12 28/12/12 9/13/12

v 3.4641 0 1.6243e-15
f 28/12/12 12/11/12 29/14/12

v 3.0641 0 0.69282
f 12/13/7 30/15/7 29/16/7

f 12/13/7 13/12/7 30/15/7

vt -83.939 -90.8338
vn 0 -1 -0
vt -83.939 90.8338
vt -120.634 -27.2764
f 13/17/13 27/18/13 30/19/13

vt -36.6949 118.11
f 13/17/13 25/20/13 27/18/13

vt -36.6949 -118.11
f 15/21/13 25/20/13 13/17/13

vt 36.6949 -118.11
f 16/22/13 25/20/13 15/21/13

vt 36.6949 118.11
f 16/22/13 24/23/13 25/20/13

vt 83.939 90.8338
f 16/22/13 22/24/13 24/23/13

vt 83.939 -90.8338
f 18/25/13 22/24/13 16/22/13

vt 120.634 27.2764
f 18/25/13 21/26/13 22/24/13

vt 120.634 -27.2764
f 21/26/13 18/25/13 19/27/13

vt 27.2764 15.4444
vn 0.991771 0.128027 5.09586e-16
vt -27.2764 15.4444
v -2.80592 -2 5.23386e-15
vt -2.62818e-13 -63.9491
f 21/28/14 19/29/14 31/30/14

vt 136.382 2.13163e-14
f 21/26/13 19/27/13 20/31/13

vt -68.191 32.3724
vn -0.832861 -0.274086 0.480853
vt -55.2347 -49.5032
vt -36.6949 32.3724
f 20/32/15 31/33/15 19/34/15

vt 36.6949 32.3724
vn -0.832861 -0.274086 -0.480853
vt 55.2347 -49.5032
vt 68.191 32.3724
f 21/35/16 31/36/16 20/37/16

vn 0.495885 0.128027 -0.858899
v -1.40296 -2 2.43
vt -7.10543e-15 -63.9491
f 16/29/17 32/38/17 18/28/17

vn -4.36876e-16 -0.274086 0.961705
f 17/32/18 32/33/18 16/34/18

f 18/35/15 32/36/15 17/37/15

vn 0.495885 0.128027 0.858899
v -1.40296 -2 -2.43
vt 3.1477e-12 -63.9491
f 22/29/19 33/39/19 24/28/19

f 23/32/16 33/33/16 22/34/16

vn -2.95437e-14 -0.274086 -0.961705
f 24/35/20 33/36/20 23/37/20

vt 68.191 118.11
f 24/23/13 22/24/13 23/40/13

vn -0.495885 0.128027 -0.858899
v 1.40296 -2 2.43
vt 2.01084e-12 -63.9491
f 13/29/21 34/41/21 15/28/21

vn 0.832861 -0.274086 0.480853
f 13/34/22 14/32/22 34/33/22

vt -68.191 -118.11
f 13/17/13 14/42/13 15/21/13

vn 5.1606e-15 -0.274086 0.961705
f 15/35/23 34/36/23 14/37/23

vn -0.495885 0.128027 0.858899
v 1.40296 -2 -2.43
vt 1.6489e-12 -63.9491
f 25/29/24 35/43/24 27/28/24

vn -2.08472e-14 -0.274086 -0.961705
f 26/32/25 35/33/25 25/34/25

vn 0.832861 -0.274086 -0.480853
f 26/37/26 27/35/26 35/36/26

vt -68.191 118.11
f 27/18/13 25/20/13 26/44/13

vt -120.634 27.2764
f 30/19/13 27/18/13 28/45/13

vn -0.991771 0.128027 1.65393e-14
v 2.80592 -2 7.39959e-15
vt 2.13357e-12 -63.9491
f 28/29/27 36/46/27 30/28/27

f 28/34/26 29/32/26 36/33/26

vt -136.382 -6.39488e-14
f 29/47/13 30/19/13 28/45/13

f 29/37/22 30/35/22 36/36/22

vn 0.363838 0.907467 -0.210062
f 9/6/28 11/5/28 12/8/28

f 11/5/28 9/6/28 10/7/28

g Mesh2 Model

l 23 22

l 8 23

l 9 8

l 12 9

l 5 12

l 6 5

l 7 6

l 8 7

l 2 8

l 10 2

l 11 10

l 4 11

l 1 4

l 3 1

l 2 3

l 3 7

l 7 20

l 20 19

l 20 31

l 21 20

l 21 31

l 19 21

l 19 31

l 19 18

l 16 18

l 17 16

l 6 17

l 1 6

l 17 32

l 18 17

l 18 32

l 16 32

l 16 15

l 15 34

l 13 15

l 14 13

l 5 14

l 4 5

l 14 34

l 15 14

l 13 34

l 13 30

l 30 36

l 28 30

l 29 28

l 29 12

l 29 36

l 30 29

l 28 36

l 28 27

l 27 35

l 25 27

l 26 25

l 9 26

l 10 9

l 26 35

l 27 26

l 25 35

l 25 24

l 22 24

l 22 33

l 22 21

l 23 33

l 24 23

l 24 33

l 11 12

