# Alias OBJ Model File
# Exported from SketchUp, (c) 2000-2012 Trimble Navigation Limited
# File units = meters

mtllib block_cylinder.mtl

g Mesh1 Model

usemtl FrontColor
v -8.66025 -10 -5
vt 340.955 196.85
vn 0 -1 -0
v -8.66025 -10 5
vt 340.955 -196.85
v -10 -10 -1.22465e-15
vt 393.701 4.82144e-14
f 1/1/1 2/2/1 3/3/1

v -5 -10 8.66025
vt 196.85 -340.955
f 2/2/1 1/1/1 4/4/1

v -5 -10 -8.66025
vt 196.85 340.955
f 4/4/1 1/1/1 5/5/1

v -8.66025 10 -5
vt 101.897 393.701
vn -0.707107 0 -0.707107
vt -101.897 -393.701
vt 101.897 -393.701
f 6/6/2 5/7/2 1/8/2

v -5 10 -8.66025
vt -101.897 393.701
f 5/7/2 6/6/2 7/9/2

vt -340.955 196.85
vn 0 1 -0
v -5 10 8.66025
vt -196.85 -340.955
vt -196.85 340.955
f 6/10/3 8/11/3 7/12/3

v -8.66025 10 5
vt -340.955 -196.85
f 6/10/3 9/13/3 8/11/3

v -10 10 -1.22465e-15
vt -393.701 4.82144e-14
f 9/13/3 6/10/3 10/14/3

vn -0.965926 0 -0.258819
f 6/9/4 3/8/4 10/6/4

f 3/8/4 6/9/4 1/7/4

vn -0.965926 0 0.258819
f 2/8/5 10/9/5 3/7/5

f 10/9/5 2/8/5 9/6/5

vn -0.707107 0 0.707107
f 4/8/6 9/9/6 2/7/6

f 9/9/6 4/8/6 8/6/6

vn -0.258819 0 0.965926
v -1.83697e-15 10 10
f 4/7/7 11/6/7 8/9/7

v -1.83697e-15 -10 10
f 11/6/7 4/7/7 12/8/7

vt 7.23217e-14 -393.701
f 4/4/1 5/5/1 12/15/1

v 6.12323e-16 -10 -10
vt -2.41072e-14 393.701
f 12/15/1 5/5/1 13/16/1

vn -0.258819 0 -0.965926
f 7/6/8 13/7/8 5/8/8

v 6.12323e-16 10 -10
f 13/7/8 7/6/8 14/9/8

vt -7.23217e-14 -393.701
vt 2.41072e-14 393.701
f 7/12/3 11/17/3 14/18/3

f 7/12/3 8/11/3 11/17/3

v 5 10 8.66025
f 14/18/3 11/17/3 15/4/3

vn 0.258819 0 0.965926
f 12/7/9 15/6/9 11/9/9

v 5 -10 8.66025
f 15/6/9 12/7/9 16/8/9

f 12/15/1 13/16/1 16/11/1

v 5 -10 -8.66025
f 16/11/1 13/16/1 17/12/1

vn 0.258819 0 -0.965926
f 14/6/10 17/7/10 13/8/10

v 5 10 -8.66025
f 17/7/10 14/6/10 18/9/10

f 14/18/3 15/4/3 18/5/3

v 8.66025 10 5
f 18/5/3 15/4/3 19/2/3

vn 0.707107 0 0.707107
f 16/7/11 19/6/11 15/9/11

v 8.66025 -10 5
f 19/6/11 16/7/11 20/8/11

f 16/11/1 17/12/1 20/13/1

v 8.66025 -10 -5
f 20/13/1 17/12/1 21/10/1

vn 0.707107 0 -0.707107
v 8.66025 10 -5
f 17/8/12 22/9/12 21/7/12

f 22/9/12 17/8/12 18/6/12

f 18/5/3 19/2/3 22/1/3

v 10 10 -0
vt 393.701 0
f 22/1/3 19/2/3 23/19/3

vn 0.965926 0 0.258819
v 10 -10 -0
f 19/9/13 24/8/13 23/6/13

f 24/8/13 19/9/13 20/7/13

vt -393.701 0
f 20/13/1 21/10/1 24/20/1

vn 0.965926 0 -0.258819
f 21/8/14 23/9/14 24/7/14

f 23/9/14 21/8/14 22/6/14

g Mesh2 Model

l 24 21

l 20 24

l 16 20

l 12 16

l 4 12

l 2 4

l 3 2

l 1 3

l 5 1

l 13 5

l 17 13

l 21 17

l 21 22

l 23 22

l 19 23

l 15 19

l 11 15

l 8 11

l 9 8

l 10 9

l 6 10

l 7 6

l 14 7

l 18 14

l 22 18

l 17 18

l 13 14

l 5 7

l 1 6

l 3 10

l 2 9

l 4 8

l 12 11

l 16 15

l 20 19

l 24 23

