# Alias OBJ Model File
# Exported from SketchUp, (c) 2000-2012 Trimble Navigation Limited
# File units = meters

mtllib flying_enemy.mtl

g Mesh1 Model

usemtl FrontColor
v -1.61712 2 2.06584
vt -63.666 -81.3323
vn 6.25824e-16 1 -3.42699e-32
v 8.4399e-16 2 -2.91113
vt -1.60496e-14 114.611
v -2.61655 2 -1.0101
vt -103.014 39.7676
f 1/1/1 2/2/1 3/3/1

v 1.61712 2 2.06584
vt 63.666 -81.3323
f 2/2/1 1/1/1 4/4/1

vt -63.666 -24.4978
vn 6.3386e-16 0.834562 0.550914
v 2.60154 1 3.58071
vt 102.423 -95.9611
vt 63.666 -24.4978
f 1/5/2 5/6/2 4/7/2

v -2.60154 1 3.58071
vt -102.423 -95.9611
f 5/6/2 1/5/2 6/8/2

vt -69.6542 -24.1237
vn -0.551652 0.814587 0.179243
vt 102.423 -91.9984
vt 57.6777 -24.1237
f 3/9/3 6/10/3 1/11/3

v -4.20938 1 -1.36771
vt -102.423 -91.9984
f 6/10/3 3/9/3 7/12/3

vt 59.965 -22.0617
vn -0.371601 0.774802 -0.511464
v -9.02389e-17 1 -4.426
vt -102.423 -84.336
vt 102.423 -84.336
f 3/13/4 8/14/4 7/15/4

vt -67.3669 -22.0617
f 8/14/4 3/13/4 2/16/4

vt 67.3669 -22.0617
vn 0.371601 0.774802 -0.511464
v 4.20938 1 -1.36771
f 2/17/5 9/14/5 8/15/5

v 2.61655 2 -1.0101
vt -59.965 -22.0617
f 9/14/5 2/17/5 10/18/5

vt 103.014 39.7676
f 2/2/1 4/4/1 10/19/1

vn 0.551652 0.814587 0.179243
vt 69.6542 -24.1237
vt -57.6777 -24.1237
f 5/12/6 10/20/6 4/21/6

f 10/20/6 5/12/6 9/10/6

vt -2.92792e-14 174.252
vn 6.53454e-16 1 1.12704e-17
vt 102.423 -140.973
vt 165.723 53.8468
f 8/22/7 5/23/7 9/24/7

vt -102.423 -140.973
f 8/22/7 6/25/7 5/23/7

vt -165.723 53.8468
f 6/25/7 8/22/7 7/26/7

vt -102.423 138.03
vn -0.337433 -0.818802 -0.464437
v -2.15451 0.432182 -1.85959
vt 25.5904 99.0893
vt 102.423 138.03
f 8/27/8 11/28/8 7/29/8

v -1.10062 0.429585 -2.62071
vt -25.5904 98.9112
f 11/28/8 8/27/8 12/30/8

v -1.06326 -0.24222 -1.46346
vt -1.42109e-14 52.8389
f 12/30/8 8/27/8 13/31/8

v -0.855951 -1 -0.278115
vt 20.827 0.870349
f 13/31/8 8/27/8 14/32/8

v -0.427975 -1 -0.589058
vt 6.03961e-14 0.870349
f 14/32/8 8/27/8 15/33/8

v -1.6243e-15 -1 -0.9
vt -20.827 0.870349
f 15/33/8 8/27/8 16/34/8

vn 0.337433 -0.818802 -0.464437
v 0.427975 -1 -0.589058
vt 5.15143e-14 0.870349
f 8/29/9 17/35/9 16/32/9

v 1.1028 0.432182 -2.62371
f 17/35/9 8/29/9 18/28/9

f 18/28/9 8/29/9 9/27/9

v 2.15233 0.429585 -1.8566
f 18/28/9 9/27/9 19/30/9

v 1.06326 -0.24222 -1.46346
vt -3.55271e-14 52.8389
f 9/27/9 20/36/9 19/30/9

v 0.855951 -1 -0.278115
f 20/36/9 9/27/9 21/34/9

vn 0.545978 -0.818802 0.177399
v 1.7204 -0.24222 0.558991
vt 1.24345e-14 52.8389
f 9/29/10 22/37/10 21/32/10

v 2.83608 0.432182 0.238051
f 22/37/10 9/29/10 23/28/10

f 5/27/10 23/28/10 9/29/10

v 2.43083 0.429585 1.47327
f 5/27/10 24/30/10 23/28/10

f 5/27/10 22/37/10 24/30/10

f 5/27/10 21/32/10 22/37/10

v 0.692479 -1 0.225
vt -1.59872e-14 0.870349
f 5/27/10 25/38/10 21/32/10

v 0.529007 -1 0.728115
f 25/38/10 5/27/10 26/34/10

v 0.649996 0.432182 2.77083
vn -4.57192e-16 -0.818802 0.574076
f 27/28/11 26/32/11 5/29/11

v -1.08287e-15 -0.24222 1.80893
vt 1.40852e-14 52.8389
f 28/39/11 26/32/11 27/28/11

v -1.80478e-15 -1 0.728115
vt -4.82248e-14 0.870349
f 28/39/11 29/40/11 26/32/11

v -0.529007 -1 0.728115
f 28/39/11 30/34/11 29/40/11

v -0.649996 0.429585 2.76713
f 31/30/11 30/34/11 28/39/11

f 30/34/11 31/30/11 6/27/11

f 31/30/11 5/29/11 6/27/11

f 5/29/11 31/30/11 27/28/11

vt 25.9739 -18.3836
vn -0.00333585 0.31673 0.94851
vt -25.2071 -18.4914
v -2.70717e-15 -2 3.58071
vt 0.495789 -119.336
f 27/41/12 31/42/12 32/43/12

vn -8.07435e-16 -0.818802 0.574076
vt 5.75351e-14 52.8389
f 27/28/13 31/30/13 28/44/13

vt 66.1818 -18.1149
vn -0.870888 -0.348905 -0.346149
vt 131.004 -91.9594
vt 110.69 10.1077
f 28/45/14 32/46/14 31/47/14

vt -66.2165 -18.0612
vn 0.871698 -0.347884 -0.345137
vt -110.848 10.259
vt -131.073 -91.8758
f 28/48/15 27/49/15 32/50/15

vn -0.545978 -0.818802 0.177399
v -2.43436 0.432182 1.47442
f 6/29/16 33/28/16 30/32/16

v -2.83255 0.429585 0.236906
f 6/29/16 34/30/16 33/28/16

f 34/30/16 6/29/16 7/27/16

f 14/34/16 34/30/16 7/27/16

v -1.7204 -0.24222 0.558991
vt 1.42109e-14 52.8389
f 34/30/16 14/34/16 35/51/16

f 30/32/16 35/51/16 14/34/16

f 30/32/16 33/28/16 35/51/16

vn 0.597614 -0.347884 0.722381
v -3.40546 -2 1.1065
f 33/49/17 36/50/17 35/48/17

vn -0.903117 0.31673 0.289933
f 34/42/18 36/43/18 33/41/18

vn 0.0600881 -0.348905 -0.93523
f 34/47/19 35/45/19 36/46/19

vt 2.30926e-14 52.8389
f 35/52/16 33/28/16 34/30/16

v -0.692479 -1 0.225
vt -1.24345e-14 0.870349
f 30/32/16 14/34/16 37/53/16

vt 16.8494 23.1912
vn -9.3048e-16 -1 4.84811e-17
vt 27.2629 -8.85827
vt 33.6989 10.9494
f 15/54/20 37/55/20 14/56/20

vt 20.827 -28.666
f 37/55/20 15/54/20 30/57/20

vt 3.44212e-14 -28.666
f 30/57/20 15/54/20 29/58/20

vt 2.73158e-14 35.4331
f 29/58/20 15/54/20 16/59/20

vt -20.827 -28.666
f 29/58/20 16/59/20 26/60/20

vt -16.8494 23.1912
f 26/60/20 16/59/20 17/61/20

vt -27.2629 -8.85827
f 26/60/20 17/61/20 25/62/20

vt -33.6989 10.9494
f 25/62/20 17/61/20 21/63/20

f 17/35/9 18/28/9 21/34/9

f 21/34/9 18/28/9 20/36/9

v 2.10469 -2 -2.89685
vn -0.908085 -0.347884 -0.23315
f 38/50/21 20/48/21 18/49/21

vn 0.501102 -0.348905 0.791936
f 19/47/22 20/45/22 38/46/22

vt 1.32292e-13 52.8389
f 19/30/9 20/64/9 18/28/9

vn 0.560219 0.31673 -0.7654
f 18/41/23 19/42/23 38/43/23

f 11/28/8 14/32/8 7/29/8

f 14/32/8 11/28/8 13/31/8

vn -0.502352 -0.347884 0.791592
v -2.10469 -2 -2.89685
f 11/49/24 39/50/24 13/48/24

vn -0.554821 0.31673 -0.769321
f 11/41/25 12/42/25 39/43/25

vt 2.97494e-13 52.8389
f 13/65/8 11/28/8 12/30/8

vn 0.908025 -0.348905 -0.231855
f 39/46/26 12/47/26 13/45/26

vn -0.598327 -0.348905 0.721298
v 3.40546 -2 1.1065
f 24/47/27 22/45/27 40/46/27

vt -1.29674e-13 52.8389
f 23/28/10 24/30/10 22/66/10

vn 0.901056 0.31673 0.296278
f 23/41/28 24/42/28 40/43/28

vn -0.0588749 -0.347884 -0.935687
f 23/49/29 40/50/29 22/48/29

g Mesh2 Model

l 2 10

l 3 2

l 1 3

l 4 1

l 10 4

l 10 9

l 8 9

l 7 8

l 6 7

l 5 6

l 9 5

l 9 21

l 21 17

l 25 21

l 26 25

l 26 5

l 29 26

l 30 29

l 30 6

l 37 30

l 14 37

l 14 7

l 15 14

l 16 15

l 8 16

l 2 8

l 17 16

l 3 7

l 1 6

l 4 5

l 35 25

l 35 34

l 36 35

l 36 33

l 36 34

l 34 33

l 33 35

g Mesh3 Model

l 40 23

l 40 22

l 40 24

l 22 24

l 23 22

l 24 23

g Mesh4 Model

l 28 31

l 32 28

l 32 31

l 32 27

l 27 28

l 31 27

g Mesh5 Model

l 20 19

l 38 20

l 38 19

l 38 18

l 18 20

l 19 18

g Mesh6 Model

l 13 12

l 39 13

l 39 12

l 39 11

l 11 13

l 12 11

