# Alias OBJ Model File
# Exported from SketchUp, (c) 2000-2012 Trimble Navigation Limited
# File units = meters

mtllib ground_enemy.mtl

g Mesh1 Model

usemtl FrontColor
v 0 -2 -3.78546
vt 0 149.034
vn 0 -1 -0
v -2.18529 -2 2.94017
vt 86.0351 -115.755
v -3.53588 -2 -1.2165
vt 139.208 47.8937
f 1/1/1 2/2/1 3/3/1

v 2.18529 -2 2.94017
vt -86.0351 -115.755
f 2/2/1 1/1/1 4/4/1

v 3.53588 -2 -1.2165
vt -139.208 47.8937
f 4/4/1 1/1/1 5/5/1

v 0 -1 -4.426
vt 102.423 29.9058
vn 0.521876 -0.460098 -0.7183
vt -84.4702 -14.4364
vt 87.6 -14.4364
f 6/6/2 5/7/2 1/8/2

v 4.20938 -1 -1.36771
vt -102.423 29.9058
f 5/7/2 6/6/2 7/9/2

v 2.60154 -1 3.58071
vt -102.423 -140.973
vt 0 174.252
vt -165.723 53.8468
f 8/10/1 6/11/1 7/12/1

v -2.60154 -1 3.58071
vt 102.423 -140.973
f 9/13/1 6/11/1 8/10/1

v -4.20938 -1 -1.36771
vt 165.723 53.8468
f 6/11/1 9/13/1 10/14/1

vt -102.423 38.1258
vn -0.817749 -0.510577 0.265703
vt 83.5031 -7.66228
vt 102.423 38.1258
f 10/15/3 2/16/3 9/17/3

vt -88.5671 -7.66228
f 2/16/3 10/15/3 3/18/3

vn -0.521876 -0.460098 -0.7183
vt -87.6 -14.4364
vt 84.4702 -14.4364
f 10/6/4 1/19/4 3/20/4

f 1/19/4 10/6/4 6/9/4

v -2.15233 -0.429585 -1.8566
vt 25.5904 -98.9112
vn -0.337433 0.818802 -0.464437
vt -102.423 -138.03
vt 102.423 -138.03
f 11/21/5 6/22/5 10/23/5

v -1.1028 -0.432182 -2.62371
vt -25.5904 -99.0893
f 6/22/5 11/21/5 12/24/5

v -2.10469 2 -2.89685
vt -0.495789 119.336
vn -0.560219 -0.31673 -0.7654
vt -25.9739 18.3836
vt 25.2071 18.4914
f 13/25/6 12/26/6 11/27/6

vt 131.073 91.8758
vn 0.908085 0.347884 -0.23315
v -1.06326 0.24222 -1.46346
vt 66.2165 18.0612
vt 110.848 -10.259
f 13/28/7 14/29/7 12/30/7

vt -131.004 91.9594
vn -0.501102 0.348905 0.791936
vt -110.69 -10.1077
vt -66.1818 18.1149
f 13/31/8 11/32/8 14/33/8

v -0.855951 1 -0.278115
vt 20.827 -0.870349
vt 3.55271e-14 -52.8389
f 11/21/5 15/34/5 14/35/5

f 15/34/5 11/21/5 10/23/5

v -2.83608 -0.432182 0.238051
vn -0.545978 0.818802 0.177399
vt -20.827 -0.870349
f 16/24/9 15/36/9 10/22/9

v -1.7204 0.24222 0.558991
vt -8.88178e-15 -52.8389
f 15/36/9 16/24/9 17/37/9

v -3.40546 2 1.1065
vn 0.0588749 0.347884 -0.935687
f 18/28/10 17/29/10 16/30/10

vn 0.598327 0.348905 0.721298
v -2.43083 -0.429585 1.47327
f 18/31/11 19/32/11 17/33/11

vn -0.901056 -0.31673 0.296278
f 16/26/12 19/27/12 18/25/12

f 16/24/9 9/23/9 19/21/9

f 9/23/9 16/24/9 10/22/9

v -0.529007 1 0.728115
f 19/21/9 9/23/9 20/34/9

v -0.649996 -0.432182 2.77083
vn -5.44595e-17 0.818802 0.574076
f 21/24/13 20/36/13 9/22/13

v -1.21071e-16 0.24222 1.80893
vt 1.98948e-15 -52.8389
f 20/36/13 21/24/13 22/38/13

vn -0.871698 0.347884 -0.345137
v -9.02389e-17 2 3.58071
f 22/29/14 21/30/14 23/28/14

v 0.649996 -0.429585 2.76713
vn 3.97001e-17 0.818802 0.574076
vt -9.69165e-15 -52.8389
f 24/21/15 22/39/15 21/24/15

v 1.35358e-16 1 0.728115
vt 8.04846e-15 -0.870349
f 25/40/13 22/38/13 24/21/13

f 20/36/13 22/38/13 25/40/13

v -0.427975 1 -0.589058
vt -16.8494 23.1912
vn 0 1 -0
vt -20.827 -28.666
vt 5.32907e-15 -28.666
f 26/41/16 20/42/16 25/43/16

v -0.692479 1 0.225
vt -27.2629 -8.85827
f 26/41/16 27/44/16 20/42/16

vt -33.6989 10.9494
f 27/44/16 26/41/16 15/45/16

vt 1.24345e-14 -0.870349
f 6/22/5 15/34/5 26/46/5

f 6/22/5 14/35/5 15/34/5

f 6/22/5 12/24/5 14/35/5

vt -1.75859e-13 -52.8389
f 14/47/5 12/24/5 11/21/5

v 0 1 -0.9
f 6/22/5 26/46/5 28/36/5

vt 0 35.4331
f 26/41/16 25/43/16 28/48/16

v 0.427975 1 -0.589058
vt 16.8494 23.1912
f 28/48/16 25/43/16 29/49/16

v 0.529007 1 0.728115
vt 20.827 -28.666
f 29/49/16 25/43/16 30/50/16

f 25/40/13 24/21/13 30/34/13

f 30/34/13 24/21/13 8/23/13

f 21/24/13 8/23/13 24/21/13

f 8/23/13 21/24/13 9/22/13

vt -86.0351 -3.86924
vn -1.26486e-16 -0.539374 0.842066
vt 102.423 42.8849
vt -102.423 42.8849
f 2/51/17 8/52/17 9/53/17

vt 86.0351 -3.86924
f 8/52/17 2/51/17 4/54/17

vt -83.5031 -7.66228
vn 0.817749 -0.510577 0.265703
f 4/55/18 7/17/18 8/15/18

vt 88.5671 -7.66228
f 7/17/18 4/55/18 5/56/18

v 2.83255 -0.429585 0.236906
vn 0.545978 0.818802 0.177399
f 31/21/19 8/22/19 7/23/19

v 2.43436 -0.432182 1.47442
f 32/24/19 8/22/19 31/21/19

v 1.7204 0.24222 0.558991
vt 1.15001e-14 -52.8389
f 33/57/19 8/22/19 32/24/19

v 0.855951 1 -0.278115
f 34/34/19 8/22/19 33/57/19

v 0.692479 1 0.225
vt 8.89565e-15 -0.870349
f 35/58/19 8/22/19 34/34/19

f 8/22/19 35/58/19 30/36/19

vt 33.6989 10.9494
vt 27.2629 -8.85827
f 34/59/16 30/50/16 35/60/16

f 29/49/16 30/50/16 34/59/16

v 1.10062 -0.429585 -2.62071
vn 0.337433 0.818802 -0.464437
vt -1.77636e-15 -0.870349
f 36/21/20 29/61/20 34/36/20

f 6/23/20 29/61/20 36/21/20

f 29/61/20 6/23/20 28/34/20

f 6/23/20 36/21/20 7/22/20

v 2.15451 -0.432182 -1.85959
f 7/22/20 36/21/20 37/24/20

v 2.10469 2 -2.89685
vn 0.554821 -0.31673 -0.769321
f 38/25/21 37/26/21 36/27/21

vn 0.502352 0.347884 0.791592
v 1.06326 0.24222 -1.46346
f 38/28/22 39/29/22 37/30/22

vn -0.908025 0.348905 -0.231855
f 38/31/23 36/32/23 39/33/23

f 36/21/20 34/36/20 39/37/20

f 7/22/20 39/37/20 34/36/20

f 39/37/20 7/22/20 37/24/20

vt -1.64267e-13 -52.8389
f 37/24/20 36/21/20 39/62/20

f 33/57/19 7/23/19 34/34/19

f 7/23/19 33/57/19 31/21/19

v 3.40546 2 1.1065
vn -0.0600881 0.348905 -0.93523
f 40/31/24 31/32/24 33/33/24

vn 0.903117 -0.31673 0.289933
f 31/27/25 40/25/25 32/26/25

vn -0.597614 0.347884 0.722381
f 40/28/26 33/29/26 32/30/26

vt 5.15143e-14 -52.8389
f 31/21/19 33/63/19 32/24/19

vn 0.00333585 -0.31673 0.94851
f 23/25/27 21/26/27 24/27/27

vn 0.870888 0.348905 -0.346149
f 22/33/28 23/31/28 24/32/28

vt 5.32907e-15 -0.870349
f 15/36/9 20/34/9 27/64/9

f 17/37/9 20/34/9 15/36/9

f 19/21/9 20/34/9 17/37/9

vt 1.24345e-13 -52.8389
f 17/65/9 16/24/9 19/21/9

g Mesh2 Model

l 1 3

l 5 1

l 4 5

l 2 4

l 3 2

l 3 10

l 6 10

l 7 6

l 8 7

l 9 8

l 10 9

l 10 15

l 15 26

l 27 15

l 20 27

l 20 9

l 25 20

l 30 25

l 30 8

l 35 30

l 34 35

l 34 7

l 29 34

l 28 29

l 6 28

l 1 6

l 26 28

l 5 7

l 4 8

l 2 9

l 33 27

l 33 31

l 40 33

l 40 32

l 40 31

l 31 32

l 32 33

g Mesh3 Model

l 18 16

l 18 17

l 18 19

l 17 19

l 16 17

l 19 16

g Mesh4 Model

l 22 24

l 23 22

l 23 24

l 23 21

l 21 22

l 24 21

g Mesh5 Model

l 14 11

l 13 14

l 13 11

l 13 12

l 12 14

l 11 12

g Mesh6 Model

l 39 36

l 38 39

l 38 36

l 38 37

l 37 39

l 36 37

